<svg xmlns="http://www.w3.org/2000/svg" viewBox="0 0 477.31 121.9"><defs><style>.cls-1{fill:#fff;}</style></defs><title>Eureka_FR_reverse</title><g id="Calque_2" data-name="Calque 2"><g id="Calque_1-2" data-name="Calque 1"><path class="cls-1" d="M57,0V12.08H13.45V33.74h39v12h-39v22H58.37V79.8H0V0Z"/><path class="cls-1" d="M108.64,68.29c13,0,21.09-8,21.09-21.55V0h13.45V46.74c0,20.86-13.11,33.63-34.65,33.63S73.76,67.6,73.76,46.74V0H87.21V46.74C87.21,60.19,95.53,68.29,108.64,68.29Z"/><path class="cls-1" d="M213.63,79.8,199,55.63a35.89,35.89,0,0,1-3.65.12H176.47v24H163V0h32.37c20.41,0,32.15,9.92,32.15,27.25C227.54,40,221.61,49,211,53.12l17.9,26.68ZM195.39,43.66c12.32,0,19.38-5.24,19.38-16.07,0-10.49-7.06-15.51-19.38-15.51H176.47V43.66Z"/><path class="cls-1" d="M303,0V12.08H259.46V33.74h39v12h-39v22h44.92V79.8H246V0Z"/><path class="cls-1" d="M374.6,79.8,348.38,44.57,334.81,59.51V79.8H321.36V0h13.45V41.27L372.89,0h15.85l-30.9,34.09,33,45.71Z"/><path class="cls-1" d="M455.31,61.79H415.07l-7.64,18h-14L428.63,0h13.8l34.88,79.8H463Zm-5.13-12L435.13,14.36,420.08,49.82Z"/><path class="cls-1" d="M8.8,117.69a3.59,3.59,0,0,0,3.7-3.94v-11h4.94v11c0,5-3.35,8.15-8.67,8.15S0,118.74,0,113.75v-11H4.94v11A3.69,3.69,0,0,0,8.8,117.69Z"/><path class="cls-1" d="M30.75,102.76l8.59,11.39V102.76h4.58v18.92H39.61L31,110.35v11.33H26.41V102.76Z"/><path class="cls-1" d="M68.17,102.76v3.94h-10v3.54h9v3.91l-9,0v3.56H68.44v3.94H53.24V102.76Z"/><path class="cls-1" d="M97.74,106.57c-1.19,0-2,.43-2,1.29,0,3.13,10,1.35,10,8.15,0,3.86-3.4,5.83-7.62,5.83a14.21,14.21,0,0,1-8.71-3L91.31,115a12.13,12.13,0,0,0,6.86,2.86c1.46,0,2.37-.54,2.37-1.54,0-3.21-10-1.26-10-8,0-3.53,3-5.78,7.56-5.78a14.51,14.51,0,0,1,7.56,2.14l-1.86,3.91A14.79,14.79,0,0,0,97.74,106.57Z"/><path class="cls-1" d="M133.1,112.21c0,5.53-4.37,9.69-10.23,9.69s-10.23-4.16-10.23-9.69,4.38-9.58,10.23-9.58S133.1,106.73,133.1,112.21Zm-15.38,0a5.34,5.34,0,0,0,5.21,5.45,5.43,5.43,0,1,0-5.21-5.45Z"/><path class="cls-1" d="M146.12,102.76v14.71h8v4.21h-13V102.76Z"/><path class="cls-1" d="M170.47,117.69a3.59,3.59,0,0,0,3.7-3.94v-11h4.94v11c0,5-3.35,8.15-8.66,8.15s-8.78-3.16-8.78-8.15v-11h4.94v11A3.69,3.69,0,0,0,170.47,117.69Z"/><path class="cls-1" d="M202.66,102.76v4.08H197v14.84h-4.94V106.84h-5.62v-4.08Z"/><path class="cls-1" d="M215.21,102.76v18.92h-4.94V102.76Z"/><path class="cls-1" d="M243.75,112.21c0,5.53-4.37,9.69-10.23,9.69s-10.23-4.16-10.23-9.69,4.37-9.58,10.23-9.58S243.75,106.73,243.75,112.21Zm-15.39,0a5.35,5.35,0,0,0,5.21,5.45,5.43,5.43,0,1,0-5.21-5.45Z"/><path class="cls-1" d="M256.17,102.76l8.59,11.39V102.76h4.58v18.92H265l-8.59-11.33v11.33h-4.61V102.76Z"/><path class="cls-1" d="M310.6,112.21c0,5.64-4.13,9.47-10.26,9.47h-8V102.76h8.15C306.52,102.76,310.6,106.59,310.6,112.21Zm-5.05.05c0-3.26-2.13-5.48-5.13-5.48h-3.1v10.91h3.35C303.53,117.69,305.55,115.5,305.55,112.26Z"/><path class="cls-1" d="M333.6,102.76v3.94h-10v3.54h9v3.91l-9,0v3.56h10.25v3.94H318.68V102.76Z"/><path class="cls-1" d="M365.22,106.81a5.35,5.35,0,0,0,0,10.69,7,7,0,0,0,4.7-2.21l2.89,3.1A11.34,11.34,0,0,1,365,121.9a9.58,9.58,0,0,1-9.93-9.72c0-5.45,4.34-9.55,10.12-9.55a10.88,10.88,0,0,1,7.64,3.23l-2.86,3.43A6.44,6.44,0,0,0,365.22,106.81Z"/><path class="cls-1" d="M385.47,102.76v18.92h-4.94V102.76Z"/><path class="cls-1" d="M401.7,106.57c-1.19,0-2,.43-2,1.29,0,3.13,10,1.35,10,8.15,0,3.86-3.4,5.83-7.61,5.83a14.23,14.23,0,0,1-8.72-3l1.91-3.86a12.13,12.13,0,0,0,6.86,2.86c1.46,0,2.38-.54,2.38-1.54,0-3.21-10-1.26-10-8,0-3.53,3-5.78,7.55-5.78a14.51,14.51,0,0,1,7.56,2.14l-1.86,3.91A14.79,14.79,0,0,0,401.7,106.57Z"/><path class="cls-1" d="M422.76,102.76v18.92h-4.94V102.76Z"/><path class="cls-1" d="M451.29,112.21c0,5.53-4.37,9.69-10.23,9.69s-10.23-4.16-10.23-9.69,4.38-9.58,10.23-9.58S451.29,106.73,451.29,112.21Zm-15.38,0a5.34,5.34,0,0,0,5.21,5.45,5.43,5.43,0,1,0-5.21-5.45Z"/><path class="cls-1" d="M463.72,102.76l8.58,11.39V102.76h4.59v18.92h-4.32L464,110.35v11.33h-4.62V102.76Z"/></g></g></svg>